<?xml version="1.0" encoding="UTF-8"?>
<!DOCTYPE svg PUBLIC "-//W3C//DTD SVG 1.1//EN" "http://www.w3.org/Graphics/SVG/1.1/DTD/svg11.dtd">
<svg xmlns="http://www.w3.org/2000/svg" version="1.1" width="404px" height="316px" style="shape-rendering:geometricPrecision; text-rendering:geometricPrecision; image-rendering:optimizeQuality; fill-rule:evenodd; clip-rule:evenodd" xmlns:xlink="http://www.w3.org/1999/xlink">
<g><path style="opacity:0.761" fill="#717171" d="M 171.5,14.5 C 170.791,15.404 169.791,15.7373 168.5,15.5C 169.103,18.0409 169.103,20.3743 168.5,22.5C 167.735,19.9039 167.401,17.2372 167.5,14.5C 168.833,14.5 170.167,14.5 171.5,14.5 Z"/></g>
<g><path style="opacity:1" fill="#2c2c2c" d="M 199.5,20.5 C 201.807,21.9774 203.64,23.9774 205,26.5C 206.249,32.0106 204.082,35.0106 198.5,35.5C 196.182,35.0029 193.848,34.6695 191.5,34.5C 189.925,32.8863 189.259,30.8863 189.5,28.5C 191.292,28.366 192.958,28.6993 194.5,29.5C 195.575,30.5624 196.575,30.5624 197.5,29.5C 196.995,28.0815 195.995,27.4148 194.5,27.5C 186.344,21.9672 186.677,17.3005 195.5,13.5C 198.799,14.2096 202.133,14.5429 205.5,14.5C 205.5,16.8333 205.5,19.1667 205.5,21.5C 203.435,21.4828 201.435,21.1495 199.5,20.5 Z M 199.5,20.5 C 197.017,20.27 196.517,19.6034 198,18.5C 199.03,18.8361 199.53,19.5028 199.5,20.5 Z"/></g>
<g><path style="opacity:1" fill="#2d2d2d" d="M 221.5,21.5 C 222.404,20.791 222.737,19.791 222.5,18.5C 225.271,18.4207 227.937,18.9207 230.5,20C 231.598,20.7697 231.598,21.603 230.5,22.5C 229.122,23.5451 228.122,24.8784 227.5,26.5C 226.615,39.29 220.781,42.29 210,35.5C 209.125,34.1268 208.625,32.6268 208.5,31C 210.264,25.8399 210.931,20.6733 210.5,15.5C 213.959,15.5313 217.292,16.198 220.5,17.5C 221.429,18.6888 221.762,20.0222 221.5,21.5 Z M 221.5,21.5 C 222.263,25.223 221.763,28.8896 220,32.5C 218.658,33.9023 217.824,33.5689 217.5,31.5C 218.156,29.5466 218.489,27.5466 218.5,25.5C 219.401,24.7095 220.068,23.7095 220.5,22.5C 220.5,21.8333 220.833,21.5 221.5,21.5 Z"/></g>
<g><path style="opacity:1" fill="#272727" d="M 187.5,30.5 C 187.5,31.5 187.5,32.5 187.5,33.5C 185.901,33.2322 184.568,33.5655 183.5,34.5C 182.5,34.5 181.5,34.5 180.5,34.5C 179.5,34.5 178.5,34.5 177.5,34.5C 177.954,32.2589 177.954,30.2589 177.5,28.5C 175.712,28.2148 174.045,28.5481 172.5,29.5C 173.747,31.323 174.414,33.323 174.5,35.5C 169.043,35.8539 163.71,36.8539 158.5,38.5C 156.5,35.8333 154.167,33.5 151.5,31.5C 151.167,32 150.833,32.5 150.5,33C 151.429,34.0769 152.096,35.2436 152.5,36.5C 152.473,38.1993 151.806,39.5326 150.5,40.5C 148.007,41.7736 145.341,42.4403 142.5,42.5C 142.737,41.209 142.404,40.209 141.5,39.5C 141.5,38.8333 141.167,38.5 140.5,38.5C 140.918,37.7784 141.584,37.2784 142.5,37C 141.299,31.6283 139.299,27.295 136.5,24C 136.905,23.0546 137.572,22.3879 138.5,22C 144.35,19.7026 150.35,18.3693 156.5,18C 160.501,20.1065 161.501,23.2732 159.5,27.5C 160.188,28.8549 161.188,29.8549 162.5,30.5C 163.469,31.3094 164.302,32.3094 165,33.5C 165.483,32.552 165.649,31.552 165.5,30.5C 166.871,28.064 167.871,25.3973 168.5,22.5C 169.103,20.3743 169.103,18.0409 168.5,15.5C 169.791,15.7373 170.791,15.404 171.5,14.5C 175.064,13.5773 178.731,13.244 182.5,13.5C 183.386,15.7216 183.386,17.8882 182.5,20C 184.062,23.6221 185.729,27.1221 187.5,30.5 Z M 175.5,22.5 C 175.5,22.8333 175.5,23.1667 175.5,23.5C 175.167,24.1667 174.833,24.8333 174.5,25.5C 173.662,25.1583 173.328,24.4916 173.5,23.5C 174.167,23.1667 174.833,22.8333 175.5,22.5 Z M 151.5,24.5 C 151.443,25.609 151.11,26.609 150.5,27.5C 148.952,27.1788 148.285,26.1788 148.5,24.5C 149.5,24.5 150.5,24.5 151.5,24.5 Z"/></g>
<g><path style="opacity:0.149" fill="#cacaca" d="M 175.5,22.5 C 174.833,22.8333 174.167,23.1667 173.5,23.5C 173.281,22.325 173.614,21.325 174.5,20.5C 175.298,20.9569 175.631,21.6236 175.5,22.5 Z"/></g>
<g><path style="opacity:0.318" fill="#b3b3b3" d="M 220.5,22.5 C 220.068,23.7095 219.401,24.7095 218.5,25.5C 218.285,23.8212 218.952,22.8212 220.5,22.5 Z"/></g>
<g><path style="opacity:0.996" fill="#787878" d="M 236.5,22.5 C 235.131,24.6915 234.131,27.0248 233.5,29.5C 232.28,26.5371 232.947,23.8705 235.5,21.5C 236.107,21.6236 236.44,21.9569 236.5,22.5 Z"/></g>
<g><path style="opacity:0.294" fill="#bababa" d="M 175.5,23.5 C 176.757,24.6226 176.424,25.2893 174.5,25.5C 174.833,24.8333 175.167,24.1667 175.5,23.5 Z"/></g>
<g><path style="opacity:0.478" fill="#8f8f8f" d="M 230.5,22.5 C 230.532,24.6188 229.532,25.9522 227.5,26.5C 228.122,24.8784 229.122,23.5451 230.5,22.5 Z"/></g>
<g><path style="opacity:1" fill="#282828" d="M 236.5,22.5 C 243.482,23.4707 246.482,27.4707 245.5,34.5C 245.343,35.8734 245.51,37.2068 246,38.5C 246.717,37.9558 247.217,37.2891 247.5,36.5C 246.28,33.5371 246.947,30.8705 249.5,28.5C 252.203,29.5125 254.536,31.0125 256.5,33C 252.715,38.7326 249.048,44.566 245.5,50.5C 239.803,48.2012 237.47,43.8679 238.5,37.5C 238.762,36.0222 238.429,34.6888 237.5,33.5C 236.893,33.6236 236.56,33.9569 236.5,34.5C 235.752,36.5841 235.752,38.5841 236.5,40.5C 235.96,41.7481 235.293,42.9148 234.5,44C 231.365,43.7659 228.698,42.4326 226.5,40C 229.515,37.6299 231.849,34.1299 233.5,29.5C 234.131,27.0248 235.131,24.6915 236.5,22.5 Z"/></g>
<g><path style="opacity:0.675" fill="#a6a6a6" d="M 151.5,24.5 C 152.885,25.9473 152.552,26.9473 150.5,27.5C 151.11,26.609 151.443,25.609 151.5,24.5 Z"/></g>
<g><path style="opacity:0.824" fill="#868686" d="M 151.5,24.5 C 150.5,24.5 149.5,24.5 148.5,24.5C 148.285,26.1788 148.952,27.1788 150.5,27.5C 149.791,28.404 148.791,28.7373 147.5,28.5C 147.5,26.8333 147.5,25.1667 147.5,23.5C 149.099,23.2322 150.432,23.5655 151.5,24.5 Z"/></g>
<g><path style="opacity:0.502" fill="#7d7d7d" d="M 194.5,27.5 C 194.5,28.1667 194.5,28.8333 194.5,29.5C 192.958,28.6993 191.292,28.366 189.5,28.5C 189.259,30.8863 189.925,32.8863 191.5,34.5C 188.833,34.5 186.167,34.5 183.5,34.5C 184.568,33.5655 185.901,33.2322 187.5,33.5C 187.5,32.5 187.5,31.5 187.5,30.5C 188.404,29.791 188.737,28.791 188.5,27.5C 190.5,27.5 192.5,27.5 194.5,27.5 Z"/></g>
<g><path style="opacity:0.143" fill="#c9c9c9" d="M 162.5,30.5 C 163.5,30.5 164.5,30.5 165.5,30.5C 165.649,31.552 165.483,32.552 165,33.5C 164.302,32.3094 163.469,31.3094 162.5,30.5 Z"/></g>
<g><path style="opacity:0.212" fill="#bababa" d="M 177.5,28.5 C 177.954,30.2589 177.954,32.2589 177.5,34.5C 178.5,34.5 179.5,34.5 180.5,34.5C 179.432,35.4345 178.099,35.7678 176.5,35.5C 176.298,33.0504 176.631,30.717 177.5,28.5 Z"/></g>
<g><path style="opacity:0.098" fill="#c1c1c1" d="M 236.5,34.5 C 236.56,33.9569 236.893,33.6236 237.5,33.5C 238.429,34.6888 238.762,36.0222 238.5,37.5C 237.833,36.5 237.167,35.5 236.5,34.5 Z"/></g>
<g><path style="opacity:0.178" fill="#c5c5c5" d="M 245.5,34.5 C 246.167,35.1667 246.833,35.8333 247.5,36.5C 247.217,37.2891 246.717,37.9558 246,38.5C 245.51,37.2068 245.343,35.8734 245.5,34.5 Z"/></g>
<g><path style="opacity:1" fill="#5c5c5c" d="M 110.5,44.5 C 110.631,41.6333 109.297,39.9666 106.5,39.5C 106.811,38.5222 107.478,37.8555 108.5,37.5C 112.554,39.201 113.221,41.5343 110.5,44.5 Z"/></g>
<g><path style="opacity:0.259" fill="#a9a9a9" d="M 152.5,36.5 C 153.434,37.5676 153.768,38.901 153.5,40.5C 152.5,40.5 151.5,40.5 150.5,40.5C 151.806,39.5326 152.473,38.1993 152.5,36.5 Z"/></g>
<g><path style="opacity:1" fill="#292929" d="M 140.5,38.5 C 140.5,39.1667 140.5,39.8333 140.5,40.5C 141.11,41.391 141.443,42.391 141.5,43.5C 138.447,44.7769 135.614,46.4436 133,48.5C 131.249,46.5101 130.249,44.1768 130,41.5C 125.917,42.9746 125.584,44.9746 129,47.5C 129.749,48.635 129.583,49.635 128.5,50.5C 123.129,52.8517 118.462,56.1851 114.5,60.5C 113.482,59.8075 112.482,59.1408 111.5,58.5C 111.5,57.8333 111.167,57.5 110.5,57.5C 109.817,55.8235 108.483,55.1568 106.5,55.5C 106.5,54.8333 106.167,54.5 105.5,54.5C 106.01,51.6122 105.344,49.2789 103.5,47.5C 103.167,47.5 102.833,47.5 102.5,47.5C 102.489,45.9826 101.823,44.8159 100.5,44C 102.66,42.668 104.66,41.168 106.5,39.5C 109.297,39.9666 110.631,41.6333 110.5,44.5C 110.5,45.8333 110.5,47.1667 110.5,48.5C 112.621,48.3253 114.621,48.6586 116.5,49.5C 116.917,50.1239 117.584,50.4573 118.5,50.5C 119.713,50.2528 120.38,49.5862 120.5,48.5C 120.636,45.4486 120.302,42.4486 119.5,39.5C 117.808,37.7952 116.475,35.7952 115.5,33.5C 119.92,30.4516 124.587,28.285 129.5,27C 130.937,31.4553 133.604,35.122 137.5,38C 138.448,38.4828 139.448,38.6495 140.5,38.5 Z M 125.5,37.5 C 127.105,38.0059 127.439,38.6726 126.5,39.5C 125.662,39.1583 125.328,38.4916 125.5,37.5 Z"/></g>
<g><path style="opacity:0.204" fill="#d1d1d1" d="M 124.5,37.5 C 124.833,37.5 125.167,37.5 125.5,37.5C 125.328,38.4916 125.662,39.1583 126.5,39.5C 126.44,40.0431 126.107,40.3764 125.5,40.5C 124.614,39.675 124.281,38.675 124.5,37.5 Z"/></g>
<g><path style="opacity:0.196" fill="#afafaf" d="M 141.5,39.5 C 142.404,40.209 142.737,41.209 142.5,42.5C 142.5,43.1667 142.167,43.5 141.5,43.5C 141.443,42.391 141.11,41.391 140.5,40.5C 141.167,40.5 141.5,40.1667 141.5,39.5 Z"/></g>
<g><path style="opacity:1" fill="#282828" d="M 259.5,39.5 C 270.651,38.4902 276.151,43.4902 276,54.5C 270.008,64.327 263.008,64.9937 255,56.5C 251.199,49.4348 252.699,43.7681 259.5,39.5 Z M 264.5,46.5 C 265.833,46.5 267.167,46.5 268.5,46.5C 268.13,50.5454 266.13,53.5454 262.5,55.5C 261.5,55.1667 260.833,54.5 260.5,53.5C 261.889,51.1324 263.222,48.7991 264.5,46.5 Z"/></g>
<g><path style="opacity:1" fill="#2b2b2b" d="M 102.5,47.5 C 102.259,49.8984 102.926,51.8984 104.5,53.5C 104.328,54.4916 104.662,55.1583 105.5,55.5C 105.833,55.5 106.167,55.5 106.5,55.5C 107.287,57.1042 108.62,57.7709 110.5,57.5C 111.167,57.5 111.5,57.8333 111.5,58.5C 112.028,59.8474 112.195,61.1807 112,62.5C 109.323,64.5143 106.656,66.5143 104,68.5C 102.726,67.4647 101.56,66.298 100.5,65C 101.28,63.927 101.113,62.7604 100,61.5C 96.8019,58.4147 93.6352,55.4147 90.5,52.5C 93.2139,49.7846 96.2139,47.4512 99.5,45.5C 100.518,46.1925 101.518,46.8592 102.5,47.5 Z"/></g>
<g><path style="opacity:1" fill="#2a2a2a" d="M 196.5,46.5 C 198.292,47.3091 200.292,47.8091 202.5,48C 201.5,48.3333 200.5,48.6667 199.5,49C 200.167,49.1667 200.833,49.3333 201.5,49.5C 205.729,49.1489 209.729,49.1489 213.5,49.5C 213.833,49.5 214.167,49.5 214.5,49.5C 216.204,51.5239 218.204,53.0239 220.5,54C 218.575,53.8651 216.575,53.6984 214.5,53.5C 196.827,49.5364 179.161,49.5364 161.5,53.5C 160.167,53.5 158.833,53.5 157.5,53.5C 157.5,52.5 157.5,51.5 157.5,50.5C 170.129,46.3938 183.129,45.0605 196.5,46.5 Z"/></g>
<g><path style="opacity:1" fill="#535353" d="M 196.5,46.5 C 202.46,46.5476 208.127,47.5476 213.5,49.5C 209.729,49.1489 205.729,49.1489 201.5,49.5C 200.833,49.3333 200.167,49.1667 199.5,49C 200.5,48.6667 201.5,48.3333 202.5,48C 200.292,47.8091 198.292,47.3091 196.5,46.5 Z"/></g>
<g><path style="opacity:0.208" fill="#b0b0b0" d="M 120.5,48.5 C 120.38,49.5862 119.713,50.2528 118.5,50.5C 117.584,50.4573 116.917,50.1239 116.5,49.5C 117.959,49.5674 119.292,49.2341 120.5,48.5 Z"/></g>
<g><path style="opacity:0.024" fill="#dfdfdf" d="M 140.5,50.5 C 141.302,49.1153 141.969,49.282 142.5,51C 142.43,51.7648 142.097,52.2648 141.5,52.5C 141.672,51.5084 141.338,50.8417 140.5,50.5 Z"/></g>
<g><path style="opacity:0.827" fill="#767676" d="M 150.5,54.5 C 150.167,54.5 149.833,54.5 149.5,54.5C 149.672,53.5084 149.338,52.8417 148.5,52.5C 148.415,51.0047 149.081,50.0047 150.5,49.5C 151.052,51.0026 151.052,52.6693 150.5,54.5 Z"/></g>
<g><path style="opacity:0.678" fill="#757575" d="M 157.5,50.5 C 157.5,51.5 157.5,52.5 157.5,53.5C 158.833,53.5 160.167,53.5 161.5,53.5C 160.081,54.4511 158.415,54.7845 156.5,54.5C 156.232,52.901 156.566,51.5676 157.5,50.5 Z"/></g>
<g><path style="opacity:0.471" fill="#8c8c8c" d="M 103.5,47.5 C 105.344,49.2789 106.01,51.6122 105.5,54.5C 105.5,54.8333 105.5,55.1667 105.5,55.5C 104.662,55.1583 104.328,54.4916 104.5,53.5C 104.675,51.3792 104.341,49.3792 103.5,47.5 Z"/></g>
<g><path style="opacity:0.242" fill="#c6c6c6" d="M 131.5,55.5 C 130.523,58.2869 130.19,61.2869 130.5,64.5C 129.194,61.3132 129.194,57.9798 130.5,54.5C 131.107,54.6236 131.44,54.9569 131.5,55.5 Z"/></g>
<g><path style="opacity:0.108" fill="#d7d1cc" d="M 149.5,54.5 C 149.833,54.5 150.167,54.5 150.5,54.5C 150.194,57.3854 150.527,60.0521 151.5,62.5C 151.158,63.3382 150.492,63.6716 149.5,63.5C 149.5,60.5 149.5,57.5 149.5,54.5 Z"/></g>
<g><path style="opacity:1" fill="#df8139" d="M 198.5,56.5 C 230.588,60.6216 254.755,76.6216 271,104.5C 276.816,114.782 280.316,125.782 281.5,137.5C 281.5,143.5 281.5,149.5 281.5,155.5C 272.279,159.539 264.279,165.373 257.5,173C 254.5,174.833 251.5,176.667 248.5,178.5C 248.167,178 247.833,177.5 247.5,177C 249.058,172.602 250.224,168.102 251,163.5C 252.269,160.068 254.435,157.402 257.5,155.5C 253.172,149.051 248.505,148.885 243.5,155C 241.048,155.29 238.715,155.956 236.5,157C 231.314,163.686 225.314,169.52 218.5,174.5C 203.187,164.683 192.02,151.35 185,134.5C 165.212,114.923 153.378,91.2566 149.5,63.5C 150.492,63.6716 151.158,63.3382 151.5,62.5C 155.571,60.3654 159.905,59.0321 164.5,58.5C 166.591,58.3184 168.591,58.6518 170.5,59.5C 171.696,59.1543 171.696,58.6543 170.5,58C 179.788,56.7244 189.121,56.2244 198.5,56.5 Z"/></g>
<g><path style="opacity:1" fill="#eaa26d" d="M 198.5,56.5 C 189.121,56.2244 179.788,56.7244 170.5,58C 171.696,58.6543 171.696,59.1543 170.5,59.5C 168.591,58.6518 166.591,58.3184 164.5,58.5C 167.942,57.2521 171.608,56.4188 175.5,56C 183.345,55.1777 191.011,55.3443 198.5,56.5 Z"/></g>
<g><path style="opacity:1" fill="#1c1c1c" d="M 140.5,50.5 C 141.338,50.8417 141.672,51.5084 141.5,52.5C 142.436,56.7352 142.769,61.0685 142.5,65.5C 142.712,70.7255 143.878,75.7255 146,80.5C 146.893,81.7112 147.726,81.7112 148.5,80.5C 146.703,73.3006 146.036,65.9673 146.5,58.5C 146.259,56.1016 146.926,54.1016 148.5,52.5C 149.338,52.8417 149.672,53.5084 149.5,54.5C 149.5,57.5 149.5,60.5 149.5,63.5C 153.378,91.2566 165.212,114.923 185,134.5C 192.02,151.35 203.187,164.683 218.5,174.5C 225.314,169.52 231.314,163.686 236.5,157C 238.715,155.956 241.048,155.29 243.5,155C 248.505,148.885 253.172,149.051 257.5,155.5C 254.435,157.402 252.269,160.068 251,163.5C 250.224,168.102 249.058,172.602 247.5,177C 247.833,177.5 248.167,178 248.5,178.5C 251.5,176.667 254.5,174.833 257.5,173C 264.279,165.373 272.279,159.539 281.5,155.5C 282.71,155.068 283.71,154.401 284.5,153.5C 288.904,149.103 292.904,144.436 296.5,139.5C 298.508,140.301 299.008,141.634 298,143.5C 299.045,142.627 299.878,141.627 300.5,140.5C 300.5,140.167 300.5,139.833 300.5,139.5C 301.833,138.167 303.167,136.833 304.5,135.5C 305.338,135.842 305.672,136.508 305.5,137.5C 305.107,139.284 304.441,140.95 303.5,142.5C 302.522,142.811 301.855,143.478 301.5,144.5C 301.846,145.696 302.346,145.696 303,144.5C 303.464,145.094 303.631,145.761 303.5,146.5C 302.797,148.716 301.464,150.549 299.5,152C 300.517,153.049 300.684,154.216 300,155.5C 294.014,163.651 287.847,171.651 281.5,179.5C 280.378,180.63 279.044,181.297 277.5,181.5C 274.494,185.339 270.994,188.672 267,191.5C 266.667,190.833 266.333,190.167 266,189.5C 264.846,190.743 263.512,191.743 262,192.5C 261.667,191.833 261.333,191.167 261,190.5C 253.271,199.455 244.104,206.621 233.5,212C 226.007,220.835 217.34,228.169 207.5,234C 204.258,237.117 202.591,240.951 202.5,245.5C 202.322,248.216 201.822,250.883 201,253.5C 200.3,255.032 199.134,256.032 197.5,256.5C 193.892,256.029 190.225,256.029 186.5,256.5C 184.68,256.351 183.18,255.684 182,254.5C 181.617,255.056 181.117,255.389 180.5,255.5C 178.901,255.768 177.568,255.434 176.5,254.5C 177.627,253.878 178.627,253.045 179.5,252C 178.002,251.415 177.002,251.915 176.5,253.5C 175.833,253.5 175.5,253.833 175.5,254.5C 173.5,255.833 171.5,255.833 169.5,254.5C 169.414,253.504 169.748,252.671 170.5,252C 168.893,252.019 167.226,252.185 165.5,252.5C 159.936,250.24 154.602,246.74 149.5,242C 150.252,241.329 150.586,240.496 150.5,239.5C 151.496,239.414 152.329,239.748 153,240.5C 165.087,233.873 177.254,227.373 189.5,221C 191.779,216.677 193.779,212.177 195.5,207.5C 192.811,206.74 189.811,206.073 186.5,205.5C 186.5,204.5 186.5,203.5 186.5,202.5C 184.473,202.662 182.473,202.495 180.5,202C 179.62,200.644 179.286,199.144 179.5,197.5C 177.278,197.822 175.444,197.155 174,195.5C 173.578,192.764 173.578,190.098 174,187.5C 172.989,188.337 171.822,188.67 170.5,188.5C 170.5,187.167 170.5,185.833 170.5,184.5C 168.5,184.5 166.5,184.5 164.5,184.5C 164.704,180.719 163.037,178.386 159.5,177.5C 158.167,171.833 156.833,166.167 155.5,160.5C 154.5,160.5 153.5,160.5 152.5,160.5C 152.66,158.801 152.494,157.134 152,155.5C 150.644,156.38 149.144,156.714 147.5,156.5C 147.357,154.738 147.691,153.071 148.5,151.5C 147.311,150.571 145.978,150.238 144.5,150.5C 144.421,149.07 144.754,147.736 145.5,146.5C 143.997,145.948 142.331,145.948 140.5,146.5C 140.5,144.833 140.5,143.167 140.5,141.5C 133.804,141.465 131.137,138.132 132.5,131.5C 129.654,131.97 127.321,131.137 125.5,129C 126.167,128.667 126.833,128.333 127.5,128C 125.833,126.333 124.167,124.667 122.5,123C 123.167,122.667 123.833,122.333 124.5,122C 122.586,120.587 121.253,118.753 120.5,116.5C 121.025,115.808 121.692,115.308 122.5,115C 118.932,112.663 118.266,109.997 120.5,107C 117.879,104.928 117.212,102.428 118.5,99.5C 119.768,100.428 121.101,100.595 122.5,100C 118.752,96.4788 119.085,94.1454 123.5,93C 117.438,87.156 118.105,85.156 125.5,87C 123.768,85.0281 122.435,82.8614 121.5,80.5C 122.255,78.5337 123.421,78.2004 125,79.5C 124.805,77.8739 124.805,76.2072 125,74.5C 125.671,73.7476 126.504,73.4142 127.5,73.5C 128.167,73.5 128.5,73.8333 128.5,74.5C 134.723,82.7851 135.723,82.4518 131.5,73.5C 130.841,70.5448 130.508,67.5448 130.5,64.5C 130.19,61.2869 130.523,58.2869 131.5,55.5C 132.969,59.9068 134.636,64.2401 136.5,68.5C 138.002,71.5046 139.502,74.5046 141,77.5C 141.137,74.3205 140.637,71.3205 139.5,68.5C 139.177,62.31 139.51,56.31 140.5,50.5 Z"/></g>
<g><path style="opacity:1" fill="#2f2f2f" d="M 214.5,49.5 C 254.597,61.5987 280.264,87.932 291.5,128.5C 290.655,130.762 289.322,131.429 287.5,130.5C 277.135,91.4708 252.801,65.8041 214.5,53.5C 216.575,53.6984 218.575,53.8651 220.5,54C 218.204,53.0239 216.204,51.5239 214.5,49.5 Z"/></g>
<g><path style="opacity:1" fill="#cc7d41" d="M 146.5,58.5 C 146.036,65.9673 146.703,73.3006 148.5,80.5C 147.726,81.7112 146.893,81.7112 146,80.5C 143.878,75.7255 142.712,70.7255 142.5,65.5C 143.5,65.5 144.5,65.5 145.5,65.5C 145.198,62.9407 145.532,60.6074 146.5,58.5 Z"/></g>
<g><path style="opacity:1" fill="#1b1a1b" d="M 176.5,63.5 C 225.993,61.4712 258.493,83.8046 274,130.5C 275.095,135.78 275.595,141.113 275.5,146.5C 274.178,146.67 273.011,146.337 272,145.5C 268.42,111.826 251.253,87.9931 220.5,74C 218.246,72.8495 215.913,72.5162 213.5,73C 203.108,78.5512 195.775,86.7179 191.5,97.5C 218.8,101.068 239.967,114.401 255,137.5C 255.833,140.667 254.667,141.833 251.5,141C 237.139,117.11 216.139,104.277 188.5,102.5C 186.158,107.898 184.991,113.565 185,119.5C 181.549,122.257 180.049,121.257 180.5,116.5C 183.203,97.0883 192.536,81.755 208.5,70.5C 199.68,67.8027 190.68,66.9694 181.5,68C 174.211,72.2245 167.377,77.0578 161,82.5C 159.054,82.2373 158.388,81.2373 159,79.5C 161.869,76.2959 165.035,73.4626 168.5,71C 164.808,70.7813 161.308,71.6146 158,73.5C 156.054,73.2373 155.388,72.2373 156,70.5C 162.675,67.4748 169.508,65.1415 176.5,63.5 Z"/></g>
<g><path style="opacity:1" fill="#df8743" d="M 136.5,68.5 C 137.5,68.5 138.5,68.5 139.5,68.5C 140.637,71.3205 141.137,74.3205 141,77.5C 139.502,74.5046 138.002,71.5046 136.5,68.5 Z"/></g>
<g><path style="opacity:1" fill="#3e3e3e" d="M 127.5,73.5 C 126.504,73.4142 125.671,73.7476 125,74.5C 124.805,76.2072 124.805,77.8739 125,79.5C 123.421,78.2004 122.255,78.5337 121.5,80.5C 121.167,80.5 120.833,80.5 120.5,80.5C 117.528,73.6735 118.361,72.6735 123,77.5C 122.395,73.5047 122.562,69.5047 123.5,65.5C 124.855,68.2109 126.189,70.8776 127.5,73.5 Z"/></g>
<g><path style="opacity:1" fill="#eb8b41" d="M 131.5,73.5 C 135.723,82.4518 134.723,82.7851 128.5,74.5C 129.609,74.4431 130.609,74.1098 131.5,73.5 Z"/></g>
<g><path style="opacity:1" fill="#2f2f2f" d="M 87.5,130.5 C 87.6602,128.801 87.4935,127.134 87,125.5C 86.2597,127.319 85.0931,128.652 83.5,129.5C 87.4635,107.56 97.6301,89.2264 114,74.5C 116.188,75.0593 116.854,76.3927 116,78.5C 101.515,93.1396 92.0149,110.473 87.5,130.5 Z"/></g>
<g><path style="opacity:1" fill="#df813a" d="M 120.5,80.5 C 120.833,80.5 121.167,80.5 121.5,80.5C 122.435,82.8614 123.768,85.0281 125.5,87C 118.105,85.156 117.438,87.156 123.5,93C 119.085,94.1454 118.752,96.4788 122.5,100C 121.101,100.595 119.768,100.428 118.5,99.5C 117.212,102.428 117.879,104.928 120.5,107C 118.266,109.997 118.932,112.663 122.5,115C 121.692,115.308 121.025,115.808 120.5,116.5C 121.253,118.753 122.586,120.587 124.5,122C 123.833,122.333 123.167,122.667 122.5,123C 124.167,124.667 125.833,126.333 127.5,128C 126.833,128.333 126.167,128.667 125.5,129C 127.321,131.137 129.654,131.97 132.5,131.5C 131.137,138.132 133.804,141.465 140.5,141.5C 140.5,143.167 140.5,144.833 140.5,146.5C 142.331,145.948 143.997,145.948 145.5,146.5C 144.754,147.736 144.421,149.07 144.5,150.5C 145.978,150.238 147.311,150.571 148.5,151.5C 147.691,153.071 147.357,154.738 147.5,156.5C 149.144,156.714 150.644,156.38 152,155.5C 152.494,157.134 152.66,158.801 152.5,160.5C 153.5,160.5 154.5,160.5 155.5,160.5C 156.833,166.167 158.167,171.833 159.5,177.5C 163.037,178.386 164.704,180.719 164.5,184.5C 166.5,184.5 168.5,184.5 170.5,184.5C 170.5,185.833 170.5,187.167 170.5,188.5C 171.822,188.67 172.989,188.337 174,187.5C 173.578,190.098 173.578,192.764 174,195.5C 175.444,197.155 177.278,197.822 179.5,197.5C 179.286,199.144 179.62,200.644 180.5,202C 182.473,202.495 184.473,202.662 186.5,202.5C 186.5,203.5 186.5,204.5 186.5,205.5C 189.811,206.073 192.811,206.74 195.5,207.5C 193.779,212.177 191.779,216.677 189.5,221C 177.254,227.373 165.087,233.873 153,240.5C 152.329,239.748 151.496,239.414 150.5,239.5C 134.255,232.921 120.922,222.588 110.5,208.5C 112.693,209.68 115.026,210.68 117.5,211.5C 117.5,210.5 117.5,209.5 117.5,208.5C 119.253,210.261 121.253,211.594 123.5,212.5C 124.647,212.182 125.481,211.516 126,210.5C 127.494,211.747 128.994,211.747 130.5,210.5C 129.494,209.604 129.494,208.938 130.5,208.5C 134.329,210.089 137.329,209.089 139.5,205.5C 136.959,202.9 134.459,202.9 132,205.5C 131.228,201.556 129.228,201.556 126,205.5C 125.493,204.004 125.993,202.837 127.5,202C 124.211,201.254 121.711,202.42 120,205.5C 119.383,204.551 119.549,203.718 120.5,203C 116.566,203.133 113.233,204.633 110.5,207.5C 109.833,206.833 109.167,206.167 108.5,205.5C 104.062,199.36 100.396,192.694 97.5,185.5C 97.0431,184.702 96.3764,184.369 95.5,184.5C 96.3007,182.492 97.634,181.992 99.5,183C 100.85,181.282 102.017,179.448 103,177.5C 103.333,178.167 103.667,178.833 104,179.5C 106.43,177.578 108.263,175.245 109.5,172.5C 110.922,172.291 112.255,171.791 113.5,171C 114.696,170.346 114.696,169.846 113.5,169.5C 108.16,171.003 102.827,172.003 97.5,172.5C 98.8502,173.65 98.6836,174.317 97,174.5C 95.8615,174.011 94.6948,173.678 93.5,173.5C 91.4402,161.86 91.1069,150.193 92.5,138.5C 93.8304,139.832 95.4971,140.665 97.5,141C 96.8333,141.333 96.1667,141.667 95.5,142C 96.5505,143.385 97.8839,144.385 99.5,145C 105.212,146.638 110.879,147.971 116.5,149C 112.667,146.5 109.5,143.333 107,139.5C 106.667,140.167 106.333,140.833 106,141.5C 105.596,138.057 103.929,136.724 101,137.5C 99.9207,135.606 98.5874,135.273 97,136.5C 95.8904,134.963 94.3904,134.297 92.5,134.5C 94.6421,123.578 98.4754,113.244 104,103.5C 109.029,95.422 114.529,87.7554 120.5,80.5 Z"/></g>
<g><path style="opacity:1" fill="#19191a" d="M 111.5,109.5 C 112.5,109.5 113.5,109.5 114.5,109.5C 112.78,115.162 110.946,120.829 109,126.5C 107.989,127.337 106.822,127.67 105.5,127.5C 106.355,121.122 108.355,115.122 111.5,109.5 Z"/></g>
<g><path style="opacity:1" fill="#4d4d4d" d="M 300.5,139.5 C 299.167,139.833 299.167,140.167 300.5,140.5C 299.878,141.627 299.045,142.627 298,143.5C 299.008,141.634 298.508,140.301 296.5,139.5C 298.491,135.518 300.491,131.518 302.5,127.5C 302.833,128.5 303.167,129.5 303.5,130.5C 302.779,133.605 301.779,136.605 300.5,139.5 Z"/></g>
<g><path style="opacity:0.098" fill="#cbcbcb" d="M 304.5,135.5 C 305.302,134.115 305.969,134.282 306.5,136C 306.43,136.765 306.097,137.265 305.5,137.5C 305.672,136.508 305.338,135.842 304.5,135.5 Z"/></g>
<g><path style="opacity:1" fill="#343434" d="M 87.5,130.5 C 84.6925,145.069 85.0259,159.569 88.5,174C 88.2568,174.902 87.9234,175.735 87.5,176.5C 84.6118,176.78 83.1118,175.447 83,172.5C 79.5193,158.075 79.686,143.742 83.5,129.5C 85.0931,128.652 86.2597,127.319 87,125.5C 87.4935,127.134 87.6602,128.801 87.5,130.5 Z"/></g>
<g><path style="opacity:1" fill="#27211e" d="M 92.5,134.5 C 94.3904,134.297 95.8904,134.963 97,136.5C 98.5874,135.273 99.9207,135.606 101,137.5C 103.929,136.724 105.596,138.057 106,141.5C 106.333,140.833 106.667,140.167 107,139.5C 109.5,143.333 112.667,146.5 116.5,149C 110.879,147.971 105.212,146.638 99.5,145C 97.8839,144.385 96.5505,143.385 95.5,142C 96.1667,141.667 96.8333,141.333 97.5,141C 95.4971,140.665 93.8304,139.832 92.5,138.5C 91.6091,137.739 90.9424,136.739 90.5,135.5C 90.9569,134.702 91.6236,134.369 92.5,134.5 Z"/></g>
<g><path style="opacity:0.467" fill="#919191" d="M 303.5,142.5 C 304.239,142.369 304.906,142.536 305.5,143C 304.915,144.302 304.249,145.469 303.5,146.5C 303.631,145.761 303.464,145.094 303,144.5C 302.346,145.696 301.846,145.696 301.5,144.5C 301.855,143.478 302.522,142.811 303.5,142.5 Z"/></g>
<g><path style="opacity:1" fill="#e7a574" d="M 281.5,137.5 C 282.326,142.316 282.826,147.316 283,152.5C 283.383,153.056 283.883,153.389 284.5,153.5C 283.71,154.401 282.71,155.068 281.5,155.5C 281.5,149.5 281.5,143.5 281.5,137.5 Z"/></g>
<g><path style="opacity:1" fill="#1a191b" d="M 199.5,148.5 C 207.923,150.031 215.923,152.864 223.5,157C 225.155,158.444 225.822,160.278 225.5,162.5C 217.22,158.46 208.554,155.294 199.5,153C 198.272,151.51 198.272,150.01 199.5,148.5 Z"/></g>
<g><path style="opacity:1" fill="#1d1b1b" d="M 134.5,149.5 C 135.833,149.5 137.167,149.5 138.5,149.5C 139.765,158.889 142.432,167.889 146.5,176.5C 149.422,176.899 152.422,177.066 155.5,177C 156.451,177.718 156.617,178.551 156,179.5C 144.047,184.064 131.88,184.564 119.5,181C 117.893,179.951 117.227,178.451 117.5,176.5C 125.405,178.094 133.405,178.761 141.5,178.5C 139.778,172.832 137.944,167.165 136,161.5C 134.985,157.56 134.485,153.56 134.5,149.5 Z"/></g>
<g><path style="opacity:1" fill="#19191b" d="M 102.5,149.5 C 103.496,149.414 104.329,149.748 105,150.5C 105.32,155.023 105.82,159.523 106.5,164C 104.898,168.645 103.398,168.479 102,163.5C 101.227,158.748 101.393,154.081 102.5,149.5 Z"/></g>
<g><path style="opacity:1" fill="#503623" d="M 109.5,172.5 C 105.5,172.5 101.5,172.5 97.5,172.5C 102.827,172.003 108.16,171.003 113.5,169.5C 114.696,169.846 114.696,170.346 113.5,171C 112.255,171.791 110.922,172.291 109.5,172.5 Z"/></g>
<g><path style="opacity:1" fill="#232222" d="M 97.5,172.5 C 101.5,172.5 105.5,172.5 109.5,172.5C 108.263,175.245 106.43,177.578 104,179.5C 103.667,178.833 103.333,178.167 103,177.5C 102.017,179.448 100.85,181.282 99.5,183C 97.634,181.992 96.3007,182.492 95.5,184.5C 94.3588,185.339 93.0255,186.006 91.5,186.5C 88.6669,186.418 85.6669,186.252 82.5,186C 81.6919,185.692 81.0253,185.192 80.5,184.5C 81.5244,183.148 82.5244,181.815 83.5,180.5C 84.8734,180.657 86.2068,180.49 87.5,180C 86.7476,179.329 86.4142,178.496 86.5,177.5C 87.1667,177.5 87.5,177.167 87.5,176.5C 88.5,176.5 89.5,176.5 90.5,176.5C 91.2506,177.573 92.2506,177.74 93.5,177C 92.244,176.583 91.5774,175.75 91.5,174.5C 91.8417,173.662 92.5084,173.328 93.5,173.5C 94.6948,173.678 95.8615,174.011 97,174.5C 98.6836,174.317 98.8502,173.65 97.5,172.5 Z"/></g>
<g><path style="opacity:0.192" fill="#b7b7b7" d="M 91.5,174.5 C 91.5774,175.75 92.244,176.583 93.5,177C 92.2506,177.74 91.2506,177.573 90.5,176.5C 90.3284,175.508 90.6618,174.842 91.5,174.5 Z"/></g>
<g><path style="opacity:0.106" fill="#d7d7d7" d="M 86.5,177.5 C 86.4142,178.496 86.7476,179.329 87.5,180C 86.2068,180.49 84.8734,180.657 83.5,180.5C 84.5,179.5 85.5,178.5 86.5,177.5 Z"/></g>
<g><path style="opacity:1" fill="#e0843e" d="M 277.5,181.5 C 264.768,217.234 239.768,238.567 202.5,245.5C 202.591,240.951 204.258,237.117 207.5,234C 217.34,228.169 226.007,220.835 233.5,212C 244.104,206.621 253.271,199.455 261,190.5C 261.333,191.167 261.667,191.833 262,192.5C 263.512,191.743 264.846,190.743 266,189.5C 266.333,190.167 266.667,190.833 267,191.5C 270.994,188.672 274.494,185.339 277.5,181.5 Z"/></g>
<g><path style="opacity:1" fill="#19181a" d="M 109.5,183.5 C 110.496,183.414 111.329,183.748 112,184.5C 114.141,188.444 115.975,192.444 117.5,196.5C 115.856,196.714 114.356,196.38 113,195.5C 111.364,192.394 109.864,189.227 108.5,186C 108.743,185.098 109.077,184.265 109.5,183.5 Z"/></g>
<g><path style="opacity:1" fill="#1d1b1b" d="M 110.5,208.5 C 110.5,208.167 110.5,207.833 110.5,207.5C 113.233,204.633 116.566,203.133 120.5,203C 119.549,203.718 119.383,204.551 120,205.5C 121.711,202.42 124.211,201.254 127.5,202C 125.993,202.837 125.493,204.004 126,205.5C 129.228,201.556 131.228,201.556 132,205.5C 134.459,202.9 136.959,202.9 139.5,205.5C 137.329,209.089 134.329,210.089 130.5,208.5C 129.494,208.938 129.494,209.604 130.5,210.5C 128.994,211.747 127.494,211.747 126,210.5C 125.481,211.516 124.647,212.182 123.5,212.5C 121.253,211.594 119.253,210.261 117.5,208.5C 117.5,209.5 117.5,210.5 117.5,211.5C 115.026,210.68 112.693,209.68 110.5,208.5 Z"/></g>
<g><path style="opacity:0.71" fill="#7a7979" d="M 108.5,205.5 C 109.167,206.167 109.833,206.833 110.5,207.5C 110.5,207.833 110.5,208.167 110.5,208.5C 108.167,208.5 105.833,208.5 103.5,208.5C 104.913,207.065 106.58,206.065 108.5,205.5 Z"/></g>
<g><path style="opacity:1" fill="#201c1c" d="M 174.5,208.5 C 176.833,208.5 179.167,208.5 181.5,208.5C 181.67,209.822 181.337,210.989 180.5,212C 168.9,214.83 157.233,215.163 145.5,213C 144.663,211.989 144.33,210.822 144.5,209.5C 154.681,209.827 164.681,209.494 174.5,208.5 Z"/></g>
<g><path style="opacity:1" fill="#2d2d2d" d="M 103.5,208.5 C 114.841,225.669 130.008,238.335 149,246.5C 149.833,249.667 148.667,250.833 145.5,250C 120.333,238.167 101.833,219.667 90,194.5C 89.5065,192.866 89.3398,191.199 89.5,189.5C 90.9778,189.238 92.3112,189.571 93.5,190.5C 96.354,196.885 99.6873,202.885 103.5,208.5 Z"/></g>
<g><path style="opacity:1" fill="#1b191b" d="M 134.5,216.5 C 141.963,221.401 149.963,225.567 158.5,229C 159.93,230.88 159.596,232.38 157.5,233.5C 148.923,229.966 141.089,225.299 134,219.5C 133.53,218.423 133.697,217.423 134.5,216.5 Z"/></g>
<g><path style="opacity:1" fill="#19181a" d="M 251.5,205.5 C 254.166,205.066 255.333,206.066 255,208.5C 244.643,220.699 231.809,229.032 216.5,233.5C 216.238,232.022 216.571,230.689 217.5,229.5C 231.322,224.931 242.656,216.931 251.5,205.5 Z"/></g>
<g><path style="opacity:1" fill="#2e2e2e" d="M 286.5,177.5 C 288.196,177.685 289.529,178.519 290.5,180C 280.99,211.183 261.657,234.183 232.5,249C 223.656,253.377 214.323,255.877 204.5,256.5C 204.238,255.022 204.571,253.689 205.5,252.5C 246.928,243.072 273.928,218.072 286.5,177.5 Z"/></g>
<g><path style="opacity:0.11" fill="#aaaaaa" d="M 155.5,245.5 C 155.5,244.833 155.167,244.5 154.5,244.5C 155.527,243.152 156.86,242.652 158.5,243C 157.627,244.045 156.627,244.878 155.5,245.5 Z"/></g>
<g><path style="opacity:0.314" fill="#989898" d="M 169.5,254.5 C 168.005,254.011 166.671,253.345 165.5,252.5C 167.226,252.185 168.893,252.019 170.5,252C 169.748,252.671 169.414,253.504 169.5,254.5 Z"/></g>
<g><path style="opacity:0.059" fill="#d5d5d5" d="M 176.5,254.5 C 176.5,254.167 176.5,253.833 176.5,253.5C 177.002,251.915 178.002,251.415 179.5,252C 178.627,253.045 177.627,253.878 176.5,254.5 Z"/></g>
<g><path style="opacity:0.361" fill="#b1b1b1" d="M 175.5,254.5 C 175.833,254.5 176.167,254.5 176.5,254.5C 177.568,255.434 178.901,255.768 180.5,255.5C 179.903,256.139 179.07,256.472 178,256.5C 176.624,256.316 175.791,255.649 175.5,254.5 Z"/></g>
<g><path style="opacity:1" fill="#4b4b4b" d="M 171.5,267.5 C 168.636,267.064 166.303,267.897 164.5,270C 167.036,270.186 169.369,270.686 171.5,271.5C 167.606,271.89 163.94,271.223 160.5,269.5C 161.246,268.264 161.579,266.93 161.5,265.5C 165.011,265.899 168.344,266.566 171.5,267.5 Z"/></g>
<g><path style="opacity:1" fill="#0f0f0f" d="M 171.5,267.5 C 173.292,268.309 175.292,268.809 177.5,269C 176.167,269.667 176.167,270.333 177.5,271C 175.527,271.495 173.527,271.662 171.5,271.5C 169.369,270.686 167.036,270.186 164.5,270C 166.303,267.897 168.636,267.064 171.5,267.5 Z"/></g>
<g><path style="opacity:1" fill="#747474" d="M 171.5,267.5 C 176.167,267.833 180.833,268.167 185.5,268.5C 185.5,269.5 185.5,270.5 185.5,271.5C 184.58,272.067 184.246,271.401 184.5,269.5C 182.473,269.338 180.473,269.505 178.5,270C 179.727,272.285 180.394,275.118 180.5,278.5C 180.5,278.833 180.5,279.167 180.5,279.5C 179.691,277.708 179.191,275.708 179,273.5C 178.722,274.416 178.222,275.082 177.5,275.5C 177.5,274.833 177.5,274.167 177.5,273.5C 177.167,272.167 176.833,272.167 176.5,273.5C 175.5,273.5 174.5,273.5 173.5,273.5C 173.158,272.662 172.492,272.328 171.5,272.5C 171.5,272.167 171.5,271.833 171.5,271.5C 173.527,271.662 175.527,271.495 177.5,271C 176.167,270.333 176.167,269.667 177.5,269C 175.292,268.809 173.292,268.309 171.5,267.5 Z"/></g>
<g><path style="opacity:1" fill="#181818" d="M 185.5,271.5 C 187.888,268.73 189.888,268.897 191.5,272C 191.164,273.03 190.497,273.53 189.5,273.5C 187.927,275.206 185.927,276.373 183.5,277C 184.066,277.995 184.733,278.828 185.5,279.5C 185.631,280.239 185.464,280.906 185,281.5C 184.092,279.561 182.592,278.561 180.5,278.5C 180.394,275.118 179.727,272.285 178.5,270C 180.473,269.505 182.473,269.338 184.5,269.5C 184.246,271.401 184.58,272.067 185.5,271.5 Z"/></g>
<g><path style="opacity:1" fill="#444444" d="M 222.5,274.5 C 222.167,273.5 221.5,272.833 220.5,272.5C 219.167,272.833 219.167,273.167 220.5,273.5C 220.833,274.5 221.5,275.167 222.5,275.5C 222.585,276.995 221.919,277.995 220.5,278.5C 218.46,276.823 216.46,275.156 214.5,273.5C 216.322,271.596 217.988,269.596 219.5,267.5C 221.679,268.757 223.679,270.257 225.5,272C 224.922,273.417 223.922,274.25 222.5,274.5 Z"/></g>
<g><path style="opacity:0.09" fill="#c3c3c3" d="M 220.5,272.5 C 221.5,272.833 222.167,273.5 222.5,274.5C 222.5,274.833 222.5,275.167 222.5,275.5C 221.5,275.167 220.833,274.5 220.5,273.5C 220.5,273.167 220.5,272.833 220.5,272.5 Z"/></g>
<g><path style="opacity:1" fill="#2b2b2b" d="M 171.5,272.5 C 171.5,272.833 171.5,273.167 171.5,273.5C 171.5,274.833 171.5,276.167 171.5,277.5C 170.5,277.5 169.5,277.5 168.5,277.5C 168.5,278.5 168.5,279.5 168.5,280.5C 168.5,281.833 169.167,282.5 170.5,282.5C 170.842,283.338 171.508,283.672 172.5,283.5C 171.391,284.29 170.058,284.79 168.5,285C 169.737,285.232 170.737,285.732 171.5,286.5C 169.901,286.232 168.568,286.566 167.5,287.5C 166.694,291.946 164.694,295.779 161.5,299C 158.875,299.723 157.208,298.723 156.5,296C 158.998,293.34 160.998,290.34 162.5,287C 160.779,286.261 159.113,285.427 157.5,284.5C 157.977,283.069 158.643,281.736 159.5,280.5C 160.736,281.246 162.07,281.579 163.5,281.5C 163.5,280.5 163.5,279.5 163.5,278.5C 162.5,278.5 161.5,278.5 160.5,278.5C 160.714,276.856 160.38,275.356 159.5,274C 160,273.5 160.5,273 161,272.5C 164.398,273.034 167.898,273.034 171.5,272.5 Z"/></g>
<g><path style="opacity:1" fill="#2b2b2b" d="M 207.5,274.5 C 215.389,278.114 223.056,282.281 230.5,287C 229.695,288.972 228.361,290.472 226.5,291.5C 220.669,288.419 215.002,285.085 209.5,281.5C 207.044,284.458 204.378,287.291 201.5,290C 198,290.5 196.5,289 197,285.5C 200.732,281.938 204.232,278.271 207.5,274.5 Z"/></g>
<g><path style="opacity:0.78" fill="#7e7e7e" d="M 171.5,273.5 C 172.167,273.5 172.833,273.5 173.5,273.5C 173.795,275.735 173.461,277.735 172.5,279.5C 172.672,278.508 172.338,277.842 171.5,277.5C 171.5,276.167 171.5,274.833 171.5,273.5 Z"/></g>
<g><path style="opacity:0.008" fill="#dddddd" d="M 171.5,277.5 C 170.5,278.5 169.5,279.5 168.5,280.5C 168.5,279.5 168.5,278.5 168.5,277.5C 169.5,277.5 170.5,277.5 171.5,277.5 Z"/></g>
<g><path style="opacity:1" fill="#232323" d="M 173.5,273.5 C 174.5,273.5 175.5,273.5 176.5,273.5C 176.833,273.5 177.167,273.5 177.5,273.5C 177.5,274.167 177.5,274.833 177.5,275.5C 177.721,278.279 177.388,280.946 176.5,283.5C 178.844,283.94 180.844,284.94 182.5,286.5C 182.5,286.833 182.5,287.167 182.5,287.5C 181.957,287.56 181.624,287.893 181.5,288.5C 185.378,290.401 185.378,292.234 181.5,294C 181.728,294.399 182.062,294.565 182.5,294.5C 182.5,295.167 182.833,295.5 183.5,295.5C 183.5,296.167 183.833,296.5 184.5,296.5C 185.105,298.481 186.105,298.815 187.5,297.5C 188.222,296.449 189.222,295.782 190.5,295.5C 191.376,295.369 192.043,295.702 192.5,296.5C 191.105,303.084 187.439,304.918 181.5,302C 179.859,300.871 178.859,299.371 178.5,297.5C 178.5,294.167 178.5,290.833 178.5,287.5C 176.821,287.285 175.821,287.952 175.5,289.5C 175.577,293.215 175.244,296.881 174.5,300.5C 173.167,300.5 171.833,300.5 170.5,300.5C 170.5,298.5 170.5,296.5 170.5,294.5C 170.5,293.5 170.5,292.5 170.5,291.5C 171.451,290.081 171.784,288.415 171.5,286.5C 170.737,285.732 169.737,285.232 168.5,285C 170.058,284.79 171.391,284.29 172.5,283.5C 172.5,282.167 172.5,280.833 172.5,279.5C 173.461,277.735 173.795,275.735 173.5,273.5 Z M 184.5,296.5 C 185.791,296.263 186.791,296.596 187.5,297.5C 186.105,298.815 185.105,298.481 184.5,296.5 Z"/></g>
<g><path style="opacity:0.663" fill="#8d8d8d" d="M 172.5,279.5 C 172.5,280.833 172.5,282.167 172.5,283.5C 171.508,283.672 170.842,283.338 170.5,282.5C 171.167,281.5 171.833,280.5 172.5,279.5 Z"/></g>
<g><path style="opacity:1" fill="#353535" d="M 189.5,273.5 C 189.389,274.117 189.056,274.617 188.5,275C 196.155,279.017 196.155,283.017 188.5,287C 188.957,287.414 189.291,287.914 189.5,288.5C 188.335,289.584 187.002,290.417 185.5,291C 187.618,292.049 189.284,293.549 190.5,295.5C 189.222,295.782 188.222,296.449 187.5,297.5C 186.791,296.596 185.791,296.263 184.5,296.5C 183.833,296.5 183.5,296.167 183.5,295.5C 182.833,295.5 182.5,295.167 182.5,294.5C 182.062,294.565 181.728,294.399 181.5,294C 185.378,292.234 185.378,290.401 181.5,288.5C 181.624,287.893 181.957,287.56 182.5,287.5C 183.239,287.631 183.906,287.464 184.5,287C 185.738,286.31 185.738,285.81 184.5,285.5C 183.833,284.167 182.833,283.167 181.5,282.5C 180.596,281.791 180.263,280.791 180.5,279.5C 180.5,279.167 180.5,278.833 180.5,278.5C 182.592,278.561 184.092,279.561 185,281.5C 185.464,280.906 185.631,280.239 185.5,279.5C 184.733,278.828 184.066,277.995 183.5,277C 185.927,276.373 187.927,275.206 189.5,273.5 Z M 186.5,279.5 C 187.473,279.987 188.473,280.487 189.5,281C 187.843,281.725 186.843,281.225 186.5,279.5 Z"/></g>
<g><path style="opacity:0.161" fill="#b9b9b9" d="M 181.5,282.5 C 182.833,283.167 183.833,284.167 184.5,285.5C 183.833,285.833 183.167,286.167 182.5,286.5C 180.844,284.94 178.844,283.94 176.5,283.5C 178.415,283.784 180.081,283.451 181.5,282.5 Z"/></g>
<g><path style="opacity:0.196" fill="#aeaeae" d="M 167.5,287.5 C 168.568,286.566 169.901,286.232 171.5,286.5C 171.784,288.415 171.451,290.081 170.5,291.5C 170.5,290.167 170.5,288.833 170.5,287.5C 169.5,287.5 168.5,287.5 167.5,287.5 Z"/></g>
<g><path style="opacity:0.645" fill="#7c7c7c" d="M 178.5,297.5 C 177.681,294.695 177.181,291.695 177,288.5C 176.617,289.056 176.117,289.389 175.5,289.5C 175.821,287.952 176.821,287.285 178.5,287.5C 178.5,290.833 178.5,294.167 178.5,297.5 Z"/></g>
<g><path style="opacity:0.29" fill="#949494" d="M 170.5,294.5 C 170.5,296.5 170.5,298.5 170.5,300.5C 171.833,300.5 173.167,300.5 174.5,300.5C 173.081,301.451 171.415,301.784 169.5,301.5C 169.198,298.941 169.532,296.607 170.5,294.5 Z"/></g>
</svg>
